<?xml version="1.0" encoding="utf-8"?>
<!-- Generator: Adobe Illustrator 24.1.0, SVG Export Plug-In . SVG Version: 6.00 Build 0)  -->
<svg version="1.1" id="Layer_1" xmlns="http://www.w3.org/2000/svg" xmlns:xlink="http://www.w3.org/1999/xlink" x="0px" y="0px"
	 viewBox="0 0 202 59" style="enable-background:new 0 0 202 59;" xml:space="preserve">
<style type="text/css">
	.st0{fill:#FEFEFE;}
	.st1{fill:#FEFEFD;}
	.st2{fill:#FBC206;}
	.st3{fill:#505050;}
	.st4{fill:#FBC717;}
	.st5{fill:#FAC00B;}
	.st6{fill:#FBC81E;}
	.st7{fill:#FEF8E5;}
	.st8{fill:#FDF1CE;}
	.st9{fill:#EE6351;}
	.st10{fill:#FBC207;}
	.st11{fill:#181818;}
	.st12{fill:#161616;}
	.st13{fill:#515151;}
	.st14{fill:#4D4D4D;}
	.st15{fill:#4F4F4F;}
	.st16{fill:#171717;}
	.st17{fill:#FBC20B;}
	.st18{fill:#545454;}
	.st19{fill:#FBC30A;}
	.st20{fill:#FBC50F;}
	.st21{fill:#FBC81D;}
	.st22{fill:#FBC81C;}
	.st23{fill:#555555;}
	.st24{fill:#FDFCFB;}
	.st25{fill:#E45845;}
	.st26{fill:#FDF2E8;}
	.st27{fill:#FDF9F8;}
	.st28{fill:#CC916B;}
	.st29{fill:#FCF0EC;}
	.st30{fill:#FDF5E9;}
	.st31{fill:#FDF6EE;}
	.st32{fill:#CCCCCC;}
	.st33{fill:#E6E6E6;}
	.st34{fill:#F07465;}
	.st35{fill:#9E6738;}
	.st36{fill:#E9B506;}
	.st37{fill:#EE6251;}
	.st38{fill:#6D560C;}
	.st39{fill:#F18477;}
	.st40{fill:#5C5333;}
	.st41{fill:#7B6211;}
	.st42{fill:#E3988E;}
</style>
<g>
	<path class="st0" d="M0.6,15.9c0-4.3,0.2-8.6-0.1-12.9C0.4,0.6,1.1,0,3.6,0c19.9,0.1,39.9,0.1,59.8,0.1c0.6,4-3.2,5.7-4.5,8.9
		c3.3-2.1,4.6-5.4,5.5-8.9c44.7,0,89.4,0,134-0.1c3,0,3.7,0.6,3.6,3.5c-0.3,6.1-0.1,12.2-0.1,18.3c-2,1.3-2.3,3.5-3.1,5.5
		c-0.5,1.4-0.7,3.3-2.4,3.4c-2,0.2-2.4-1.8-3.1-3.3c-0.3-0.7-0.4-1.5-1-2.2c1.2,4.7,3.5,9,4.2,13.8c-0.2-4.2,1.2-8,2.6-11.8
		c0.5-1.4,0.5-3.5,2.9-3.3c0,10-0.2,20.1,0.1,30.1c0.1,3.5-0.5,4.7-4.5,4.6c-51.4-0.2-102.7-0.1-154.1-0.1c-0.3-0.4-0.3-0.9-0.1-1.3
		c2.3-2.2,5.5-2.9,8-4.9c6-4.8,9.1-11.1,10.1-18.5c1-2.9,3.5-3,6.2-3.2c-2.6-3.3-6.7-4.7-9.1-8c-2.8-5.6-8-8.8-12.8-12.3
		c-0.9-3.1-2.6-3.6-5.9-3.2c-3.4,0.4-6.9,1.6-10.6-0.2c-2.1-1-1.1,2.1-2,3c-0.6,1.4-1.8,2.4-3,3.1c-5.6,3.1-8.8,8.1-11,13.9
		c-3.1,3.5-7.1,5.6-11.3,7.4c-0.5,0-0.9-0.2-1.3-0.6c0-5.6,0-11.2,0-16.8c1.5-0.8,3.2,0.4,4.9-0.3C3.9,13.9,2.1,16.8,0.6,15.9z"/>
	<path class="st1" d="M0.6,33.7c0.3,0,0.6,0,0.9,0c3.6,0.3,7.7-1.8,10.6,2.1c2.5,10,7.9,17.6,18.2,20.8c0.8,0.3,1.4,0.8,1.1,1.8
		c-6,0-12,0-17.9,0c-0.7-1.5,1-2.6,0.6-4.2c-2.4,0.8-0.8,3-1.6,4.2C8.6,58.4,3,60,1,58c-2-2-0.4-7.5-0.4-11.4
		C0.6,42.3,0.6,38,0.6,33.7z"/>
	<path class="st2" d="M31.5,58.4C22,55.1,14.6,49.7,12,39.6c-0.2-0.9-0.2-1.9-0.3-2.9c3.6,1.7,8.5-0.9,11.2,3.6
		c0.5,0.8,1.5,0.2,2.3-0.1c1.6-0.6,3.2-0.9,4.6,0.3c1,1.5,1.1,3.3,1.6,5c0.4,2.3,0.8,4.6,1.4,6.8c0.3,2.1,1.4,4.1-0.3,6.1
		C32.1,58.4,31.8,58.4,31.5,58.4z"/>
	<path class="st3" d="M201.9,23.8c-2.4,5-4.5,10.1-4.4,15.9c0,1.2,0.5,3-1.5,3c-1.8,0-1.3-1.7-1.2-2.7c0.4-5.3-2.3-9.8-3.6-14.7
		c-0.3-0.9-1.5-2.3,0.1-3c1.8-0.8,2.1,1.1,2.5,2.2c0.7,1.9,1.3,3.9,2,6.1c3.1-2.7,0.9-8.3,6.3-8.7C201.9,22.5,201.9,23.2,201.9,23.8
		z"/>
	<path class="st4" d="M64.4,0.1c1.2,4.1-1.3,8.1-8.2,12.3c0.9-5.4,5.7-8,7.2-12.3C63.7,0.1,64,0.1,64.4,0.1z"/>
	<path class="st5" d="M41.4,58.4c-1.7,0-3.3,0-5,0c-1.3-1.5-1.8-3.2-1.2-5.1c2.3-1.7,4.4-4,7.7-2.5C44.3,53.7,43.2,56.1,41.4,58.4z"
		/>
	<path class="st6" d="M0.6,15.9C2.2,15.8,2,13,3.8,13.5c1.3,0.4,2.5,1.4,3.6,2.4c0.7,0.7-0.1,1.5-0.6,2.1c-1.2,1.6-2.3,0.3-3.5-0.1
		c-0.9-0.3-1.8-0.7-2.7-1.1C0.6,16.6,0.6,16.2,0.6,15.9z"/>
	<path class="st4" d="M12.5,58.4c-0.5-1.3-2.6-2.1-1.9-3.6c0.6-1.2,2.1-2,3.3-2.7c0.3-0.2,1.3,0.6,1.9,1.2c1.4,1.5-0.2,2.2-0.9,3.2
		c-0.5,0.6-0.9,1.3-1.3,2C13.2,58.4,12.9,58.4,12.5,58.4z"/>
	<path class="st7" d="M35.7,53.7c0.3,1.6,0.5,3.1,0.8,4.7c-1.3,0-2.7,0-4,0c-0.3-2.1-0.5-4.2-0.8-6.2C33.5,51.6,34.8,52.1,35.7,53.7
		z"/>
	<path class="st8" d="M41.4,58.4c0.4-2.6,0.7-5.3,1.1-7.9c0.7-1.5,0.6-4,3.4-2.5c0.9,3.6,0,6.8-2.5,9.5c0,0.3,0,0.7,0,1
		C42.8,58.4,42.1,58.4,41.4,58.4z"/>
	<path class="st9" d="M59.3,22.1c3.3,3.1,7.6,5.1,10.5,9.2c-2.6,0.9-5.9-0.6-7.6,2.3c-2.6,6.2-10.4,9.7-16.6,7.5
		c-4.4-10.3-0.2-20,10.1-20.8C56.3,22,58.4,20.9,59.3,22.1z"/>
	<path class="st9" d="M26.3,10.3c0.5-2.2-0.5-4.6,1.2-7.1c2.1,3.5,5.2,3.8,8.6,3c2.9-0.7,6.9,2.1,8.6-3c0.5,2.3,1,4.6,1.6,6.8
		c1.9,2.8,1.9,5.7,0.5,8.7c-1.1,1.2-2.6,1.4-4.1,1.4c-2.5,0.1-5.1-0.2-7.5,0.7c-3.1,0.1-6.2,1.7-9.2-0.1
		C24.5,17.2,24.6,13.8,26.3,10.3z"/>
	<path class="st9" d="M29.1,40.5c-1.3,0.2-2.7,0-3.7,0.9c-1.9,1.7-3.7,3.3-4-1.1c-0.1-2-2.1-1.9-3.5-1.6c-2.6,0.7-4.4-0.4-6.2-2
		c-1.1-2.2-3.2-1.8-5.1-2.1c-1.7-0.2-3.6,0.7-5.1-0.9c3.6-2.3,7.2-4.6,10.7-7c0.9-0.6,1.5-1.8,2.9-1.4c0.4,0.2,0.7,0.6,0.7,1.1
		c-0.2,0.4-0.3,0.9-0.7,1.2c0.6,0,0.5-0.6,0.7-1c0.3-0.5,0.4-1.2,1-1.6c3.8-2.1,7-0.1,10.2,1.6C28.9,31.1,31.2,35.5,29.1,40.5z"/>
	<path class="st10" d="M46.2,40.6c2.4,0.1,5.2,1.9,6.7-1.7c0.1-0.4,0.9-0.9,1.2-0.8c4.9,2.3,5.5-2.9,8.2-4.6
		C61.9,45.2,55,54,43.4,57.4c0.5-3.3,2.3-6.3,1.9-9.7c-1.2-1.6-0.6-3.3-0.6-5C44.9,41.8,45.3,41,46.2,40.6z"/>
	<path class="st11" d="M89,32.6c0,1.3-0.1,2.6,0,3.9c0.1,1.2-0.4,3,1.5,3.2c2,0.2,1.8-1.5,1.8-2.8c0.1-2,1.5-1.9,2.8-1.7
		c1.7,0.2,1.3,1.6,1.3,2.7c-0.1,2.5-1.1,4.5-3.9,4.9c-2.9,0.4-6,0.6-7.2-2.7c-1.6-4.9-1.6-10.1-0.1-15c1-3.4,4.2-3.5,7-3
		c2.9,0.5,4.1,2.5,4.1,5.3c0,1.2,0.2,2.4-1.6,2.3c-1.1-0.1-2.4,0.4-2.6-1.4c-0.1-1.4,0.2-3.5-2.1-3c-1.8,0.4-1.1,2.5-1.2,3.8
		C88.9,30.3,89,31.5,89,32.6z"/>
	<path class="st12" d="M110.8,41.8c0,0,0.1,0.8-1.1,0.9c-1.4,0.2-2.6,0.2-3.1-1.5c-0.3-1.1,0.1-2.8-2-2.7c-1.9,0.1-2,1.4-2.2,2.7
		c-0.2,2.1-1.7,1.7-3,1.5c-2-0.2-1.1-1.7-0.9-2.6c0.9-5,1.9-10,2.9-14.9c0.3-1.6,0.6-3.1,3-3.1c2.2,0,2.6,1.1,3,3
		C108.4,30.3,109.5,35.6,110.8,41.8z"/>
	<path class="st13" d="M148.1,33.5c0-3.1,0-6.2,0-9.3c0-0.7-0.2-1.8,1-1.9c1.3-0.1,1.6,0.9,1.6,1.9c0,5.6,0,11.1,0,16.7
		c0,0.5-0.4,1.4-0.8,1.6c-0.9,0.4-1.5-0.2-1.8-1.1c-1.4-3.3-2.8-6.5-5.1-9.7c0,2.8,0,5.6,0,8.4c0,1.1,0.2,2.5-1.5,2.5
		c-1.4,0-1.2-1.3-1.2-2.2c0-5.4,0-10.8,0-16.2c0-0.8,0-1.8,1-1.9c0.9-0.1,1.5,0.6,1.8,1.4c1.4,3.3,2.9,6.6,4.3,9.8
		C147.5,33.5,147.8,33.5,148.1,33.5z"/>
	<path class="st14" d="M168.2,22.1c5.3,0.2,8.5,3.6,6.2,7.5c-2.2,3.8-0.8,6.8-0.1,10.2c0.2,1,1.6,2.2-0.2,2.9
		c-1.8,0.6-2.1-1-2.5-2.2c-0.4-1.3-0.6-2.6-1.1-3.8c-0.5-1.1-0.1-3.2-1.9-3c-2.2,0.3-1,2.4-1.2,3.7c-0.2,1.1,0,2.3-0.1,3.5
		c0,1.1-0.2,2-1.6,2c-1-0.1-1.4-0.7-1.4-1.7c0-5.8-0.1-11.5,0.1-17.3C164.4,21.3,166.8,22.4,168.2,22.1z"/>
	<path class="st15" d="M187.9,42.5c-0.3,0-0.6,0-0.9-0.1c-3-0.1-7.1,2.3-8.7-1.9c-2-5.3-2-11,0.1-16.4c0.9-2.4,3.7-2.6,6.1-2
		c2.2,0.5,3.5,1.8,3.7,4.1c0.1,0.9,0.7,2-0.7,2.5c-1.3,0.4-1.8-0.3-1.9-1.5c-0.2-1.7-1-2.8-2.9-2.6c-2.3,0.3-2.3,2.1-2.4,3.7
		c-0.1,3-0.1,5.9,0.1,8.9c0.1,1.6,0.4,3.4,2.7,3.4c1.7,0,2.4-1.1,2.6-2.5c0.2-1.5,0.9-3.5-1.9-3.5c-0.3,0-0.6-0.6-1.2-1.2
		c1.9-1.2,3.6-0.9,5.3-0.5C188.7,36.1,188.7,39.3,187.9,42.5z"/>
	<path class="st16" d="M115.6,22.2c1.7,0,3-0.1,4.3,0c1.6,0.2,2,1.9,1.1,2.4c-5.7,3.1-1.4,8.2-2.8,12.1c-0.7,2,2.2,6.1-2.3,5.9
		c-4-0.1-1.5-3.8-1.8-5.9c-0.5-2.5-0.1-5.2-0.1-7.9c0-1,0.1-2.1-0.4-2.8c-0.7-1.1-3.9-0.5-2.7-3C111.9,21.1,114.2,22.5,115.6,22.2z"
		/>
	<path class="st17" d="M15.3,25.9c-1,0.3-2,0.6-3,0.9c1.9-7.8,6.9-13,14.1-16.4c0.1,3.4,0.2,6.8,0.3,10.2c0.3,0.4,0.4,0.9,0.2,1.3
		c-0.6,0.8-1.4,1.2-2.4,1.6C21.2,23.5,17.8,23,15.3,25.9z"/>
	<path class="st15" d="M162.3,42c-8.2,1.8-8.4,1.7-8.4-5.5c0-3.4-0.1-6.9,0-10.3c0-1.4-0.8-3.5,1-3.9c2-0.5,4.2-0.1,6.4,0
		c0.2,0,0.6,0.8,0.6,1.1c-0.1,0.4-0.6,0.9-0.9,0.9c-2.1,0.1-4-0.2-4.1,3.2c-0.2,3.5,2.2,3.6,4.8,4.3c-3.2,1.3-4.8,2.2-4.9,5.8
		C156.7,42.3,160.9,39.5,162.3,42z"/>
	<path class="st18" d="M138.2,42c-8,2.1-8.5,1.7-8.5-5.8c0-3.8,0-7.5,0-11.3c0-1.4,0.1-2.8,1.9-2.8c2,0,4.1-0.6,5.8,0.5
		c0.8,0.5,0.2,1.7-0.7,1.7c-2.7,0-4,0.7-4.1,3.9c-0.1,3.4,3,2.2,4.6,3.9c-2.7,1.2-4.9,2.2-4.7,6C133,42.3,136.9,39.4,138.2,42z"/>
	<path class="st19" d="M46.1,19.1c0.1-3,0.2-6,0.2-9.1c5.8,2.4,10.4,6.1,13,12c-1-0.5-2.7,1-3.1-1.1c-3.1-2.6-5.7,0.9-8.7,0.5
		c-0.5,0-0.9-0.2-1.3-0.5C45.8,20.5,45.8,19.8,46.1,19.1z"/>
	<path class="st20" d="M14.4,12c-0.4,1.2-1.2,1.4-2.2,0.7C9.5,10.9,6.8,9,4.1,7.1C3.4,6.6,2.6,6,3.3,5.1c0.6-0.7,1.3-1.6,2.2-1.9
		C6.5,2.8,14.6,10.8,14.4,12z"/>
	<path class="st21" d="M66,51.4c-1.6-0.9-3.9-1.1-4.9-3c-0.5-1,1.1-1.8,1.9-1.6c2,0.5,4.4,0.8,5.5,2.6C68.9,50.3,67.3,51.2,66,51.4z
		"/>
	<path class="st22" d="M63.8,16.5c-1.3-0.1-1.5-1-1.3-1.7c0.8-2.3,2.6-3.7,4.7-4.5c0.9-0.4,1.2,1,1.1,1.7C68,14.7,65.3,15,63.8,16.5
		z"/>
	<path class="st23" d="M187.9,42.5c0-3.2,0-6.4,0-9.6C189.3,36.1,189.3,39.3,187.9,42.5z"/>
	<path class="st24" d="M46.5,20.8c3.2-0.1,6.5-4.3,9.7,0.2c-7.5,1.5-10.8,5.2-10.6,12.4c0.1,2.4-0.6,4.8,0.5,7.2
		c-0.2,0.6-0.4,1.3-0.6,1.9c-4.6,2.8-9.4,4.7-14.9,3.3c-1.4-1.5-0.8-3.6-1.5-5.3c-1-4.5-1.9-9.1-2.9-13.6c0.3-0.4,0.7-0.6,1.1-0.7
		c1,0,1.7,0.4,2.5,0.9c1.1,0.7,2.2,1.2,3.4,1.7c0.8,0.4,1.5,0.9,1.7,1.8c0.1,0.4,0,0.8-0.1,1.2c-0.1,0.6-0.3,1.1-0.3,1.7
		c0.1,0.9,0.3,1.8,0.6,2.7c0.4,0.5,0.8,0.3,1.2-0.1c0.7-0.9,1.4-1.9,2.3-2.6c0.3-0.2,0.8-0.3,0.8-0.7c0-0.7,0.2,0.1-0.4,0
		c-0.3-0.3-0.5-0.7-0.6-1.1c-0.2-1.1-0.2-2.1,0.3-3.1c0.9-1.7,2.9-2.5,3.7-4.4C43.6,22.7,44.5,21.1,46.5,20.8z"/>
	<path class="st25" d="M30.6,45.8c5-1.1,10-2.2,14.9-3.3c0.9,1.8-0.2,3.5-0.2,5.2c-0.9,0.9-1.8,1.9-2.8,2.8
		c-2.3,1.1-4.6,2.1-6.9,3.2c-1.3-0.5-2.7-1-4-1.5C30.8,50.2,30.2,48.1,30.6,45.8z"/>
	<path class="st26" d="M58.3,27.2c-1.1-0.6-0.9-1.4-0.9-2.1c0-0.3,0.5-0.9,0.6-0.9c0.9,0.2,1.4,0.8,1.2,1.7
		C59.1,26.4,58.6,26.8,58.3,27.2z"/>
	<path class="st27" d="M46.5,20.8c-1.1,1.5-2.2,2.9-3.3,4.4c-1.7,0.8-3,2.5-5,3c-0.4-0.1-0.8-0.3-1.1-0.7c-0.5-0.5-0.4-1.4-1-2.1
		c-0.4,1.4,1,1.7,1.5,2.5c0.9,2.1-0.7,2.9-1.9,4c-0.5,0.1-0.9,0-1.2-0.5c-0.3-0.6-0.6-1.1-0.9-1.7c-1.1-1.1-2.5-1.7-3.7-2.7
		c-1.4-1.6-4.5-1.9-3.8-5c0.2-0.5,0.4-1,0.5-1.5c2.9-0.5,5.8-1,8.8-0.7c2.5,0.2,4.9-0.8,7.4-0.5C44.3,19.2,45.6,19.5,46.5,20.8
		L46.5,20.8z"/>
	<path class="st28" d="M42.2,19.7c-2-0.4-3.7,0.4-5.3,1.4c-1.6,0.9-1.3-0.5-1.5-1.3c2.2-1.8,4.7-0.8,7.2-0.8
		C42.7,19.4,42.6,19.7,42.2,19.7z"/>
	<path class="st29" d="M42.2,19.7c0.1-0.2,0.3-0.5,0.4-0.7c1.2,0,2.4,0.1,3.6,0.1c0.1,0.6,0.3,1.1,0.4,1.7
		C45.1,20.4,43.6,20.1,42.2,19.7z"/>
	<path class="st30" d="M27.4,26.8c-0.4,0-0.8,0-1.1,0.1c-3.1-0.1-6-2.6-9.3-0.9c-0.4,0.4-0.8,0.3-1.1-0.2c-0.2,0-0.3,0.1-0.5,0.1
		c1.7-5,5.6-3.6,9.2-3.2C25.9,23.8,27.8,24.5,27.4,26.8z"/>
	<path class="st31" d="M15.8,25.8c0.4,0.1,0.8,0.1,1.1,0.2c-1.5,1.6-1,3.9-2.5,6.8C12.9,29.2,14.5,27.5,15.8,25.8z"/>
	<path class="st32" d="M104.7,29.5c0.4,2,1.4,4,0.4,6.1c-0.1,0.2-1.3,0.2-1.4,0C102.7,33.3,104.3,31.5,104.7,29.5z"/>
	<path class="st33" d="M167.1,27.8c0.2-1.5-0.5-3.5,1.9-3.4c2,0.1,2.9,1.4,2.9,3.3c0,1.9-0.9,3.2-3,3.2
		C166.5,30.9,167.5,28.8,167.1,27.8z"/>
	<path class="st34" d="M27.4,26.8c-1-1.4-2-2.7-2.9-4.1c0.5-0.2,1.1-0.4,1.6-0.7c1.5,1.6,3,3.1,4.4,4.7c0.3,0.9,0,1.3-1,1
		C28.8,27.4,28.1,27.1,27.4,26.8z"/>
	<path class="st35" d="M37.5,27.8c0.4,0,0.7-0.1,1.1-0.1c1-0.1,1.3,0.2,1,1.1c0,1.3,0.1,2.5,0.1,3.8c-1.8,1.2-3.2,0.5-4.3-1.1
		C35,29.7,38.2,29.8,37.5,27.8C37.5,27.8,37.5,27.8,37.5,27.8z"/>
	<path class="st36" d="M35.3,31.6c1.4,0.4,2.8,0.7,4.3,1.1c0,0-0.1,0-0.1,0c0.3,0.4,0.3,0.9,0,1.3c-1.2,0.9-0.4,3-2.2,3.6
		c-0.6-0.2-1.1-0.6-1.5-1.1c-0.6-1.1-1.1-2.3-1.6-3.4c-0.2-0.4-0.1-0.8,0.3-1.1c0,0-0.1-0.4-0.1-0.4C34.7,31.6,35,31.7,35.3,31.6z"
		/>
	<path class="st37" d="M39.5,28.9c-0.3-0.4-0.6-0.8-1-1.1c1.7-0.6,2.6-2.7,4.7-2.5C42.7,27.2,41,27.9,39.5,28.9z"/>
	<path class="st38" d="M34.6,32.6c1.3,0.7,1.9,1.7,1.7,3.1c-0.3,0.8-0.9,1.1-1.7,0.9c-0.9-1.2-1.8-2.3-1.1-3.9
		C33.9,32.3,34.2,32.3,34.6,32.6z"/>
	<path class="st39" d="M29.5,27.7c0.3-0.3,0.7-0.7,1-1c1.5,0.6,2.8,1.3,3,3.1C31.8,29.8,30.5,29.1,29.5,27.7z"/>
	<path class="st40" d="M34.6,36.7c0.6-0.3,1.1-0.6,1.7-0.9c0.3,0.6,0.7,1.1,1,1.7c-0.9,0.6-1.9,1.8-2.5,1.7
		C34,38.9,34.6,37.5,34.6,36.7z"/>
	<path class="st41" d="M34.6,32.6c-0.4,0-0.7,0-1.1,0.1c-0.1-0.8,0.3-1,1-0.9C34.5,32.1,34.5,32.4,34.6,32.6z"/>
	<path class="st35" d="M39.5,33.9c0-0.4,0-0.9,0-1.3c0.3,0.1,0.5,0.3,0.8,0.4C40,33.3,39.8,33.6,39.5,33.9z"/>
	<path class="st42" d="M37.5,27.8c-1.9,0.3-3.9,0.2-3.8-2.2c0-0.9,2.3-2.5,3.1-2.3C39.3,24.2,36.9,26.3,37.5,27.8
		C37.5,27.8,37.5,27.8,37.5,27.8z"/>
</g>
</svg>
