<svg xmlns="http://www.w3.org/2000/svg" viewBox="0 0 33 38"><defs><style>.cls-1{fill:#fdfaf5;}.cls-2{fill:#ed6a57;}.cls-3{fill:#fdfaf7;}.cls-4{fill:#fbc40e;}.cls-5{fill:#fbc614;}.cls-6{fill:#fbc415;}.cls-7{fill:#fdf9ec;}.cls-8{fill:#fbc312;}.cls-9{fill:#fbf8f5;}.cls-10{fill:#fdf8f7;}</style></defs><title>Asset 3</title><g id="Layer_2" data-name="Layer 2"><g id="Layer_1-2" data-name="Layer 1"><path class="cls-1" d="M25,0h8V21c-7.23,1.48-9,6.8-5.9,15.72L33,28V38H8l.09-.2q-.72-6-1.45-12c-.24-1.28-.49-2.54-.73-3.81l.32-3c3.27.11,6.57.48,9.82.27s6.52-1,9.78-1.53h5.63L32,16,26.09,9.73ZM11.68,23.11,17.8,27l-1.38-5.57Zm13.23.28-.7-1.2-2.93,1.63L22,25.07Zm-13,5.2,1-.91-2-2.39-1,.87Zm7.39-1.38h.4V25.77h-.4Z"/><path class="cls-2" d="M25.83,17.69c-3.26.53-6.5,1.32-9.78,1.53S9.5,19.06,6.23,19c-.11-2.81-.21-5.62-.32-8.43l.92-9.24c3.84,5.21,8.66,2.24,12.61,2.85C22.6,4.61,23.6,2.92,23,0h2c.36,3.24.73,6.49,1.09,9.73Q26,13.72,25.83,17.69Z"/><path class="cls-3" d="M23,0c.6,2.92-.4,4.61-3.56,4.13-4-.61-8.77,2.36-12.61-2.85-.31,3.08-.61,6.16-.92,9.24L0,19V0Z"/><path class="cls-4" d="M33,28l-5.9,8.72C24,27.8,25.77,22.48,33,21Z"/><path class="cls-5" d="M6.63,25.76q.74,6,1.46,12Q4.06,32.39,0,27V24l6.35,1.7Z"/><path class="cls-6" d="M0,19l5.91-8.48c.11,2.81.21,5.62.32,8.43-.11,1-.21,2-.32,3a2.55,2.55,0,0,0-.91.19L0,21Z"/><path class="cls-7" d="M0,27q4.05,5.4,8.09,10.8L8,38H0Z"/><path class="cls-1" d="M0,21l5,1.14L6.35,25.7,0,24Z"/><path class="cls-8" d="M25.83,17.69q.12-4,.26-8L32,16l-.54,1.67Z"/><path class="cls-9" d="M11.68,23.11l4.74-1.72L17.8,27Z"/><path class="cls-10" d="M24.91,23.39,22,25.07l-.72-1.25,2.93-1.63Z"/><path class="cls-9" d="M11.91,28.59l-2-2.43,1-.87,2,2.39Z"/><path class="cls-9" d="M6.35,25.7,5,22.14A2.55,2.55,0,0,1,5.91,22c.24,1.27.49,2.53.73,3.81Z"/><ellipse class="cls-10" cx="19.5" cy="26.49" rx="0.28" ry="1.02"/></g></g></svg>
