<?xml version="1.0" encoding="utf-8"?>
<!-- Generator: Adobe Illustrator 24.1.0, SVG Export Plug-In . SVG Version: 6.00 Build 0)  -->
<svg version="1.1" id="Layer_1" xmlns="http://www.w3.org/2000/svg" xmlns:xlink="http://www.w3.org/1999/xlink" x="0px" y="0px"
	 viewBox="0 0 110.87 31.17" style="enable-background:new 0 0 110.87 31.17;" xml:space="preserve">
<g>
	<path d="M13.53,17.92c-0.05,1.72-0.66,5.53-5.3,5.53c-4.6,0-5.56-3.35-5.56-8.66c0-6.02,1.91-8.59,5.72-8.59
		c4.44,0,5.1,3.4,5.14,5.38H9.72c-0.03-0.93-0.06-2.37-1.39-2.37c-1.31,0-1.65,1.52-1.65,5.59c0,3.58,0.2,5.67,1.6,5.67
		c1.3,0,1.38-1.55,1.43-2.55H13.53z"/>
	<path d="M18.71,19.57l-0.57,3.56h-3.82l3.28-16.64h5.37l3.32,16.64h-3.97l-0.58-3.56H18.71z M21.24,16.36
		c-0.38-2.43-0.74-5.14-0.95-6.67h-0.13c-0.16,1.6-0.57,4.24-0.96,6.67H21.24z"/>
	<path d="M28.7,9.62h-3.28V6.49h10.36v3.13h-3.26v13.51H28.7V9.62z"/>
</g>
<g>
	<g>
		<path d="M49.91,15.22h-5.54v6.11h6.17l-0.27,1.8h-7.93V6.41h7.85v1.83h-5.81v5.17h5.54V15.22z"/>
		<path d="M52.52,23.13V6.41H55c4.4,11.13,5.05,12.75,5.27,13.49h0.02c-0.12-2.2-0.15-4.71-0.15-7.43V6.41h1.9v16.73h-2.37
			C55.1,11.41,54.5,9.83,54.31,9.15h-0.02c0.12,2.09,0.14,4.77,0.14,7.78v6.21H52.52z"/>
		<path d="M72.84,15.22H67.3v6.11h6.17l-0.27,1.8h-7.93V6.41h7.85v1.83H67.3v5.17h5.54V15.22z"/>
		<path d="M77.49,15.54v7.59h-2.05V6.41h4.51c2.85,0,4.37,1.59,4.37,4.37c0,2.48-1.24,3.55-2.22,3.89c1.5,0.56,2.01,1.88,2.01,4.25
			v0.67c0,1.62,0.06,2.65,0.24,3.56h-2.03c-0.23-0.76-0.26-2.22-0.26-3.59v-0.58c0-2.35-0.49-3.42-2.68-3.42H77.49z M77.49,13.82h2
			c1.99,0,2.75-1.08,2.75-2.98c0-1.64-0.76-2.71-2.55-2.71h-2.2V13.82z"/>
		<path d="M96.13,23.13h-1.6c-0.06-0.48-0.11-0.96-0.12-1.73c-0.59,1.19-1.48,1.99-3.34,1.99c-3.6,0-4.61-3.62-4.61-8.58
			c0-5.82,1.82-8.64,5.26-8.64c4.11,0,4.37,3.62,4.42,4.62h-2.05c-0.05-0.61-0.18-2.84-2.43-2.84c-2.28,0-3.06,2.74-3.06,6.83
			c0,4.13,0.59,6.84,2.86,6.84c2.13,0,2.64-1.76,2.64-5.07v-0.84h-2.78v-1.79h4.81V23.13z"/>
		<path d="M101.39,23.13v-6.29c0-0.17-0.04-0.32-0.1-0.45l-4.24-9.99h2.31c1.1,2.79,2.62,6.59,3.13,8.16
			c0.59-1.7,2.14-5.51,3.17-8.16h2.17l-4.29,10c-0.05,0.1-0.09,0.25-0.09,0.46v6.27H101.39z"/>
	</g>
</g>
</svg>
